<?xml version="1.0" encoding="UTF-8"?>
<svg version="1.1" xmlns="http://www.w3.org/2000/svg" width="512" height="512">
<path d="M0 0 C8.88413044 3.84557937 16.64794701 11.31652139 24.19921875 17.26171875 C28.83502179 20.89559321 33.55691831 24.40003419 38.3125 27.875 C45.10178095 32.84032635 51.82148482 37.88665636 58.5 43 C65.11938274 48.0666281 71.77503207 53.07435459 78.5 58 C86.12740017 63.5866242 93.65644565 69.29276338 101.1640625 75.0390625 C106.89902727 79.42064326 112.67759563 83.73542958 118.5 88 C125.22497112 92.92564775 131.8805141 97.93350295 138.5 103 C146.86406866 109.40147617 155.30443766 115.68946853 163.80078125 121.9140625 C165.20100353 122.94205117 166.60074512 123.97069493 168 125 C168.74169434 125.545354 169.48338867 126.09070801 170.24755859 126.65258789 C170.96379395 127.18360107 171.6800293 127.71461426 172.41796875 128.26171875 C173.05887451 128.73569092 173.69978027 129.20966309 174.36010742 129.69799805 C177.6267932 132.29160163 178.78635152 134.41705897 179.34375 138.546875 C179.59250674 143.14887463 179.71500747 146.8470894 176.75 150.5625 C172.97114298 153.91194145 170.44531864 155.28076673 165.375 155.1875 C164.59898437 155.18105469 163.82296875 155.17460937 163.0234375 155.16796875 C161 155 161 155 159 154 C158.67 215.71 158.34 277.42 158 341 C161.96 341 165.92 341 170 341 C174.0755583 343.00202864 176.61154355 345.16894307 179 349 C179.73238075 353.81791647 179.60981191 358.45942255 177.8125 363 C174.9830533 366.12214809 172.34630526 367.82373728 168.12772655 368.37604749 C167.06304307 368.37653455 165.99835958 368.37702161 164.90141296 368.37752342 C163.66838597 368.38534666 162.43535898 368.39316991 161.16496754 368.40123022 C159.7996743 368.39474428 158.43438238 368.38797433 157.0690918 368.38095093 C155.61640668 368.38440757 154.16372418 368.38917217 152.71104717 368.39513266 C148.71857172 368.40767155 144.72631103 368.40145921 140.73383474 368.39217401 C136.42838673 368.38539566 132.12297604 368.39585871 127.8175354 368.40411377 C119.38294019 368.41746628 110.94842498 368.41456661 102.51382661 368.40587585 C95.65995771 368.39910568 88.80611127 368.39817969 81.95223999 368.4014473 C80.9774339 368.401907 80.00262781 368.40236669 78.99828213 368.40284032 C77.01809445 368.40379948 75.03790678 368.40477212 73.05771911 368.4057581 C54.481592 368.41431644 35.90550928 368.40447089 17.32938945 368.388357 C1.38395876 368.37495342 -14.56140642 368.37728138 -30.50683594 368.39111328 C-49.01567126 368.40716125 -67.52446767 368.41349242 -86.03330898 368.40427649 C-88.00628598 368.40332082 -89.97926298 368.40237771 -91.95223999 368.4014473 C-92.92302831 368.40098447 -93.89381662 368.40052164 -94.89402276 368.40004479 C-101.74109506 368.39745255 -108.5881427 368.40183094 -115.43521118 368.40888596 C-123.77744747 368.41729245 -132.11959905 368.41503874 -140.46182561 368.39904372 C-144.71963746 368.39114954 -148.977308 368.38808889 -153.23511887 368.39799118 C-157.13103716 368.40691491 -161.02668283 368.40204378 -164.92257631 368.38605852 C-166.33367466 368.38270084 -167.74479594 368.38442692 -169.15587962 368.39168589 C-171.07104161 368.40078401 -172.98626791 368.38967453 -174.90141296 368.37752342 C-175.96609645 368.37703637 -177.03077993 368.37654931 -178.12772655 368.37604749 C-182.34630526 367.82373728 -184.9830533 366.12214809 -187.8125 363 C-189.65473845 358.34592392 -189.78063124 353.92954172 -189 349 C-186.94509486 344.87388095 -184.11400048 343.05700024 -180 341 C-176.04 341 -172.08 341 -168 341 C-168.33 279.29 -168.66 217.58 -169 154 C-169.66 154.33 -170.32 154.66 -171 155 C-175.70697417 155.57425085 -179.12144792 155.45554552 -183.375 153.25 C-186.56552971 150.51526025 -188.7514115 148.63532241 -189.3984375 144.37890625 C-189.39070313 143.44949219 -189.38296875 142.52007812 -189.375 141.5625 C-189.38273437 140.63566406 -189.39046875 139.70882812 -189.3984375 138.75390625 C-188.63837297 133.50051904 -186.13825778 130.95286575 -182.0703125 127.79296875 C-180.4281648 126.58256574 -178.77926226 125.38129265 -177.125 124.1875 C-175.30528915 122.84991071 -173.48630159 121.51133698 -171.66796875 120.171875 C-170.73001465 119.48416016 -169.79206055 118.79644531 -168.82568359 118.08789062 C-164.32089854 114.75931608 -159.88167912 111.34630729 -155.4375 107.9375 C-148.07168787 102.30549926 -140.64394091 96.76777948 -133.16381836 91.28881836 C-127.22305473 86.92715918 -121.35237656 82.47938499 -115.5 78 C-108.11358208 72.34646605 -100.66805534 66.78529806 -93.1640625 61.2890625 C-87.22328567 56.92722968 -81.3524674 52.47945452 -75.5 48 C-68.11813929 42.34995412 -60.6786832 36.79011679 -53.17724609 31.30004883 C-47.09931436 26.84015252 -41.10635591 22.27582749 -35.125 17.6875 C-9.98101195 -1.57813504 -9.98101195 -1.57813504 0 0 Z M-10.12109375 34.0078125 C-10.96414062 34.6575 -11.8071875 35.3071875 -12.67578125 35.9765625 C-13.58714844 36.68554688 -14.49851562 37.39453125 -15.4375 38.125 C-17.36230127 39.6080436 -19.28810204 41.08979076 -21.21484375 42.5703125 C-22.1879248 43.31829102 -23.16100586 44.06626953 -24.16357422 44.83691406 C-28.23763105 47.94382949 -32.36379487 50.9765944 -36.5 54 C-43.22548289 58.92493219 -49.88054589 63.933497 -56.5 69 C-63.88641792 74.65353395 -71.33194466 80.21470194 -78.8359375 85.7109375 C-84.77671747 90.07277263 -90.64742523 94.52068204 -96.5 99 C-104.64267126 105.22961597 -112.84920922 111.36361135 -121.1171875 117.42578125 C-121.80785277 117.95592929 -122.49851805 118.48607733 -123.21011257 119.03229046 C-125.36214346 120.55011934 -127.39937199 121.78755159 -129.69822025 123.03690052 C-137.08403621 127.28548466 -137.08403621 127.28548466 -141.85995555 134.08608222 C-143.21281928 140.1281968 -142.88038214 146.28519624 -142.70288086 152.43432617 C-142.69864442 154.49503264 -142.7010352 156.55576172 -142.70951843 158.61645508 C-142.71380691 164.18581436 -142.62589928 169.75028653 -142.52090907 175.31851363 C-142.42686582 181.1465203 -142.4183072 186.9746506 -142.40052795 192.80329895 C-142.35398389 203.82899919 -142.23100517 214.85245715 -142.08028561 225.87717181 C-141.91237483 238.43309756 -141.83008955 250.98913286 -141.75485408 263.54590261 C-141.59824322 289.36521848 -141.33152768 315.18238869 -141 341 C-135.72 341 -130.44 341 -125 341 C-124.9906543 338.62893066 -124.98130859 336.25786133 -124.97167969 333.81494141 C-124.93780431 325.95180751 -124.88219703 318.08893314 -124.81609726 310.22600746 C-124.77670818 305.46201898 -124.74447785 300.69821298 -124.72900391 295.93408203 C-124.71378064 291.33025691 -124.67923534 286.72693373 -124.63169098 282.12333298 C-124.6169354 280.37325801 -124.60896235 278.62311136 -124.60811615 276.8729744 C-124.58702736 255.11283725 -124.58702736 255.11283725 -116.5625 246.625 C-115.72912109 245.71621094 -115.72912109 245.71621094 -114.87890625 244.7890625 C-105.52154806 235.87914555 -95.45177959 234.77780009 -83.0234375 234.38671875 C-81.96084717 234.34720093 -80.89825684 234.30768311 -79.8034668 234.26696777 C-77.20247479 234.17120331 -74.60144426 234.08238831 -72 234 C-71.99635437 233.04723679 -71.99270874 232.09447357 -71.98895264 231.11283875 C-71.95186932 222.09506848 -71.89395226 213.0776355 -71.81609726 204.06012249 C-71.77673655 199.42507789 -71.74449249 194.79022002 -71.72900391 190.1550293 C-71.7137617 185.67438703 -71.67918369 181.19425855 -71.63169098 176.71384621 C-71.61695468 175.01204733 -71.60896348 173.31017507 -71.60811615 171.60831261 C-71.59535732 158.82140728 -70.52412386 148.17606811 -61.9921875 137.94140625 C-55.18705277 131.30973574 -46.45394763 128.69758773 -37.13378906 128.70947266 C-36.36869019 128.70275543 -35.60359131 128.69603821 -34.81530762 128.68911743 C-32.29867971 128.67019968 -29.78231949 128.66621613 -27.265625 128.6640625 C-25.50453586 128.65762925 -23.74344778 128.6509005 -21.98236084 128.64389038 C-18.29387944 128.63193245 -14.60549159 128.62820793 -10.91699219 128.62939453 C-6.21192999 128.62959741 -1.50747392 128.60232137 3.19744492 128.56785011 C6.83509016 128.54550832 10.47259135 128.54155924 14.11029816 128.54261398 C15.84369236 128.54026797 17.57709115 128.53150132 19.31041718 128.51594925 C31.39395536 128.41769762 41.41203936 129.35780475 51.1796875 137.16796875 C58.50631574 144.54176413 61.28755843 153.75498337 61.31884766 163.95483398 C61.33391609 165.09753502 61.33391609 165.09753502 61.34928894 166.26332092 C61.37994578 168.75757152 61.39710687 171.25171566 61.4140625 173.74609375 C61.43278827 175.48487757 61.45236272 177.22365244 61.4727478 178.9624176 C61.52392625 183.52105414 61.56362815 188.07972008 61.60089111 192.63848877 C61.64102065 197.29747713 61.69207204 201.95634463 61.7421875 206.61523438 C61.83877747 215.74340451 61.92323609 224.87164311 62 234 C62.98766609 234.03365662 62.98766609 234.03365662 63.99528503 234.06799316 C67.01144231 234.17438518 70.02716654 234.29024443 73.04296875 234.40625 C74.07869019 234.44137695 75.11441162 234.47650391 76.18151855 234.51269531 C88.12147378 234.98697357 97.09051206 236.87180944 105.90234375 245.5546875 C112.16271626 252.85262641 114.13109355 259.33554103 114.20532227 268.79785156 C114.21522186 269.57872131 114.22512146 270.35959106 114.23532104 271.16412354 C114.26685373 273.73959341 114.29166086 276.31508171 114.31640625 278.890625 C114.33698289 280.67853265 114.35797955 282.46643551 114.37937927 284.2543335 C114.43452663 288.95605589 114.48396823 293.65782166 114.53222656 298.35961914 C114.58249518 303.15905611 114.63815325 307.95843023 114.69335938 312.7578125 C114.80085123 322.17182327 114.90181794 331.58588753 115 341 C120.28 341 125.56 341 131 341 C131.44042444 313.99224169 131.77919104 286.9853524 131.98443127 259.97472191 C132.08227609 247.43209732 132.21558289 234.891749 132.43334961 222.35058594 C132.62313856 211.41541703 132.74539879 200.4818967 132.7876814 189.54512656 C132.81238974 183.75673017 132.87013817 177.97304829 133.00887108 172.18616867 C135.05326558 147.81554091 135.05326558 147.81554091 126.84695435 126.13751221 C122.97932211 122.85708094 118.94299599 120.70439292 114.2190876 118.90765762 C111.06228618 117.61645358 108.82726147 115.80482071 106.21875 113.625 C105.03635742 112.71814453 105.03635742 112.71814453 103.83007812 111.79296875 C103.06115234 111.20128906 102.29222656 110.60960937 101.5 110 C94.88183219 104.93181201 88.22493418 99.92562069 81.5 95 C73.87259983 89.4133758 66.34355435 83.70723662 58.8359375 77.9609375 C52.3366566 72.9954102 45.77132493 68.12821227 39.17285156 63.2956543 C33.14506731 58.87021627 27.18918948 54.35596656 21.25 49.8125 C14.96208372 45.00848336 8.66995877 40.21180571 2.3125 35.5 C1.6947168 35.03698486 1.07693359 34.57396973 0.44042969 34.09692383 C-4.38928157 30.54114244 -5.44416925 30.37563107 -10.12109375 34.0078125 Z M-44 159 C-45.5222537 162.42905792 -45.1200845 166.27234315 -45.11352539 169.97167969 C-45.11364593 170.67592701 -45.11376646 171.38017433 -45.11389065 172.10576248 C-45.11314625 174.37783249 -45.10553963 176.64981973 -45.09765625 178.921875 C-45.09618536 180.32763632 -45.09516556 181.73339818 -45.09460449 183.13916016 C-45.08936861 188.34278181 -45.07540736 193.54639172 -45.0625 198.75 C-45.041875 210.3825 -45.02125 222.015 -45 234 C-18.6 234 7.8 234 35 234 C35.04125 222.388125 35.0825 210.77625 35.125 198.8125 C35.14320801 195.1513208 35.16141602 191.4901416 35.18017578 187.71801758 C35.18686627 184.42495152 35.18686627 184.42495152 35.19088745 181.13188171 C35.19395073 179.66958905 35.20096854 178.20730131 35.21115112 176.74504089 C35.2258325 174.52500687 35.2278106 172.30528052 35.22705078 170.08520508 C35.231492 168.83500076 35.23593323 167.58479645 35.24050903 166.29670715 C34.93070561 162.05016742 34.26109221 159.31695036 31.28855896 156.2127533 C28.20620964 154.57935457 25.86703472 154.61184515 22.38305664 154.59594727 C21.7272612 154.58908401 21.07146576 154.58222076 20.39579773 154.57514954 C18.23369532 154.55688795 16.07231904 154.56071785 13.91015625 154.56640625 C12.40327214 154.56184394 10.89639011 154.55653821 9.38951111 154.55052185 C6.2329767 154.54159193 3.07669531 154.54401215 -0.07983398 154.55395508 C-4.11965065 154.56544194 -8.15859285 154.54523806 -12.19829464 154.51603794 C-15.30991642 154.49766731 -18.421329 154.49797009 -21.53299141 154.50367546 C-23.02210275 154.50382859 -24.51122835 154.4977913 -26.00028801 154.48538399 C-28.08529939 154.47045904 -30.16870019 154.48115915 -32.25366211 154.49829102 C-33.43850693 154.49845718 -34.62335175 154.49862335 -35.84410095 154.49879456 C-39.67478716 155.10716661 -41.32342585 156.22617081 -44 159 Z M-97 265 C-98.17727453 268.53182358 -98.11994258 271.31336262 -98.11352539 275.04174805 C-98.11364593 275.76569921 -98.11376646 276.48965036 -98.11389065 277.23553944 C-98.1131446 279.57763052 -98.10553038 281.91964191 -98.09765625 284.26171875 C-98.09618588 285.70821087 -98.09516575 287.15470353 -98.09460449 288.60119629 C-98.08936266 293.96330564 -98.07540146 299.3254036 -98.0625 304.6875 C-98.041875 316.670625 -98.02125 328.65375 -98 341 C-71.93 341 -45.86 341 -19 341 C-19 314.93 -19 288.86 -19 262 C-31.1275 261.938125 -43.255 261.87625 -55.75 261.8125 C-59.5769043 261.78518799 -63.40380859 261.75787598 -67.34667969 261.72973633 C-70.78213096 261.71970198 -70.78213096 261.71970198 -74.21759033 261.71366882 C-75.74577454 261.70906713 -77.27394797 261.69852625 -78.80206299 261.68327332 C-81.11921056 261.66130418 -83.43569353 261.65828222 -85.75292969 261.65942383 C-87.05864929 261.65276199 -88.3643689 261.64610016 -89.70965576 261.63923645 C-93.19824884 262.02173662 -94.58582281 262.50084462 -97 265 Z M9 262 C9 288.07 9 314.14 9 341 C35.07 341 61.14 341 88 341 C88.061875 329.058125 88.12375 317.11625 88.1875 304.8125 C88.21481201 301.04690674 88.24212402 297.28131348 88.27026367 293.40161133 C88.28029923 290.01540785 88.28029923 290.01540785 88.28633118 286.62919617 C88.29092693 285.12522212 88.30145549 283.62125888 88.31672668 282.11735535 C88.33874337 279.83430893 88.34171619 277.55193579 88.34057617 275.26879883 C88.34723801 273.98306473 88.35389984 272.69733063 88.36076355 271.37263489 C87.97366024 267.75376008 87.18766766 265.87585015 85 263 C82.01435214 261.50717607 79.31016282 261.88083023 75.97998047 261.88647461 C75.24623766 261.88635407 74.51249485 261.88623354 73.75651741 261.88610935 C71.37671015 261.88685693 68.99698079 261.89447809 66.6171875 261.90234375 C65.14982135 261.90381365 63.68245467 261.90483406 62.21508789 261.90539551 C56.76838394 261.91064281 51.32169121 261.92460397 45.875 261.9375 C27.621875 261.9684375 27.621875 261.9684375 9 262 Z " fill="#098D26" transform="translate(261,72)"/>
<path d="M0 0 C8.88413044 3.84557937 16.64794701 11.31652139 24.19921875 17.26171875 C28.83502179 20.89559321 33.55691831 24.40003419 38.3125 27.875 C45.10178095 32.84032635 51.82148482 37.88665636 58.5 43 C65.11938274 48.0666281 71.77503207 53.07435459 78.5 58 C86.12740017 63.5866242 93.65644565 69.29276338 101.1640625 75.0390625 C106.89902727 79.42064326 112.67759563 83.73542958 118.5 88 C125.22497112 92.92564775 131.8805141 97.93350295 138.5 103 C146.86406866 109.40147617 155.30443766 115.68946853 163.80078125 121.9140625 C165.20100353 122.94205117 166.60074512 123.97069493 168 125 C168.74169434 125.545354 169.48338867 126.09070801 170.24755859 126.65258789 C170.96379395 127.18360107 171.6800293 127.71461426 172.41796875 128.26171875 C173.05887451 128.73569092 173.69978027 129.20966309 174.36010742 129.69799805 C177.6267932 132.29160163 178.78635152 134.41705897 179.34375 138.546875 C179.59250674 143.14887463 179.71500747 146.8470894 176.75 150.5625 C172.97114298 153.91194145 170.44531864 155.28076673 165.375 155.1875 C164.59898437 155.18105469 163.82296875 155.17460937 163.0234375 155.16796875 C161 155 161 155 159 154 C158.67 215.71 158.34 277.42 158 341 C149.09 341 140.18 341 131 341 C131 272.03 131 203.06 131 132 C129.68 131.34 128.36 130.68 127 130 C125.71072532 129.130132 124.4419924 128.22931381 123.19140625 127.3046875 C122.45535156 126.76199219 121.71929687 126.21929687 120.9609375 125.66015625 C120.16945313 125.07105469 119.37796875 124.48195313 118.5625 123.875 C117.72847656 123.25753906 116.89445312 122.64007813 116.03515625 122.00390625 C108.92118754 116.72136103 101.87657862 111.34941831 94.84008789 105.96435547 C89.10395425 101.58134751 83.32385044 97.26562959 77.5 93 C69.87259983 87.4133758 62.34355435 81.70723662 54.8359375 75.9609375 C48.33956937 70.9976356 41.77736935 66.13235325 35.18164062 61.30224609 C29.06682239 56.81319303 23.02664782 52.23153878 17 47.625 C16.11183594 46.94969238 15.22367188 46.27438477 14.30859375 45.57861328 C10.64924644 42.79615708 6.99725326 40.01092807 3.40625 37.140625 C2.4471875 36.39296875 1.488125 35.6453125 0.5 34.875 C-0.2734375 34.25367188 -1.046875 33.63234375 -1.84375 32.9921875 C-3.96159428 31.7653394 -3.96159428 31.7653394 -6.2734375 32.4296875 C-10.18597594 34.68304058 -13.60948778 37.42676975 -17.125 40.25 C-23.43924812 45.2433809 -29.81092822 50.12799372 -36.3125 54.875 C-43.10198226 59.84004519 -49.82149141 64.8866614 -56.5 70 C-63.88632009 75.65365962 -71.33194732 81.21470389 -78.8359375 86.7109375 C-85.67228725 91.73031722 -92.41218244 96.8707832 -99.14648438 102.02587891 C-105.82750194 107.13074092 -112.57484982 112.13815662 -119.36108398 117.10205078 C-125.21005246 121.38859369 -130.9454658 125.80137545 -136.62890625 130.3046875 C-139 132 -139 132 -141 132 C-141 200.97 -141 269.94 -141 341 C-149.91 341 -158.82 341 -168 341 C-168.33 279.29 -168.66 217.58 -169 154 C-169.66 154.33 -170.32 154.66 -171 155 C-175.70697417 155.57425085 -179.12144792 155.45554552 -183.375 153.25 C-186.56552971 150.51526025 -188.7514115 148.63532241 -189.3984375 144.37890625 C-189.39070313 143.44949219 -189.38296875 142.52007812 -189.375 141.5625 C-189.38273437 140.63566406 -189.39046875 139.70882812 -189.3984375 138.75390625 C-188.63837297 133.50051904 -186.13825778 130.95286575 -182.0703125 127.79296875 C-180.4281648 126.58256574 -178.77926226 125.38129265 -177.125 124.1875 C-175.30528915 122.84991071 -173.48630159 121.51133698 -171.66796875 120.171875 C-170.73001465 119.48416016 -169.79206055 118.79644531 -168.82568359 118.08789062 C-164.32089854 114.75931608 -159.88167912 111.34630729 -155.4375 107.9375 C-148.07168787 102.30549926 -140.64394091 96.76777948 -133.16381836 91.28881836 C-127.22305473 86.92715918 -121.35237656 82.47938499 -115.5 78 C-108.11358208 72.34646605 -100.66805534 66.78529806 -93.1640625 61.2890625 C-87.22328567 56.92722968 -81.3524674 52.47945452 -75.5 48 C-68.11813929 42.34995412 -60.6786832 36.79011679 -53.17724609 31.30004883 C-47.09931436 26.84015252 -41.10635591 22.27582749 -35.125 17.6875 C-9.98101195 -1.57813504 -9.98101195 -1.57813504 0 0 Z " fill="#53DA71" transform="translate(261,72)"/>
<path d="M0 0 C0.76828125 -0.01546875 1.5365625 -0.0309375 2.328125 -0.046875 C7.9913299 -0.0083498 11.35396031 1.24836558 16 4.5 C19.16488832 8.99209955 19.75714857 13.16796778 19 18.5 C17.44634006 23.25237158 15.42437903 25.28598439 11.05297852 27.67089844 C7.41166914 29.14145221 3.87958153 29.07811238 0 29 C-0.76828125 29.01546875 -1.5365625 29.0309375 -2.328125 29.046875 C-7.9913299 29.0083498 -11.35396031 27.75163442 -16 24.5 C-19.16488832 20.00790045 -19.75714857 15.83203222 -19 10.5 C-17.44634006 5.74762842 -15.42437903 3.71401561 -11.05297852 1.32910156 C-7.41166914 -0.14145221 -3.87958153 -0.07811238 0 0 Z " fill="#ABF5BB" transform="translate(272,273.5)"/>
<path d="M0 0 C1.24330078 -0.0299707 1.24330078 -0.0299707 2.51171875 -0.06054688 C7.99413681 -0.05618883 11.19451605 0.74801149 15.5 4.4375 C18.4680927 7.49951969 18.91015102 9.65101913 18.875 13.875 C18.74288059 18.18898601 18.49761721 21.12978446 15.5 24.4375 C10.75883822 28.30031906 5.89124598 27.91930975 0.0625 27.875 C-1.3306543 27.9049707 -1.3306543 27.9049707 -2.75195312 27.93554688 C-8.49866884 27.93145669 -12.00246744 27.37015963 -16.5 23.4375 C-19.41803293 19.0604506 -20.14048309 15.65286229 -19.5 10.4375 C-18.04627873 6.45413945 -16.52790391 4.11176724 -12.9453125 1.76171875 C-8.5096135 0.05684124 -4.70866904 -0.04027633 0 0 Z " fill="#ACF5BC" transform="translate(325.5,380.5625)"/>
<path d="M0 0 C0.83789062 -0.01611328 1.67578125 -0.03222656 2.5390625 -0.04882812 C7.63973929 -0.05283809 11.24453466 0.41682429 15.625 3.3125 C18.52102899 6.44083079 19.5482626 9.6876383 20.0625 13.875 C19.4109859 18.99403933 18.07817184 22.041841 14.16796875 25.4609375 C9.35742798 27.97493565 5.40444311 27.86492036 0.0625 27.75 C-0.87013672 27.75708984 -1.80277344 27.76417969 -2.76367188 27.77148438 C-7.75701744 27.72521674 -11.34890136 27.59272777 -15.375 24.3125 C-18.95052873 20.36708898 -18.93435223 16.0769678 -18.796875 10.9765625 C-18.1249162 6.73326708 -16.5690429 5.14358348 -13.375 2.3125 C-8.99599147 -0.29881988 -4.97218563 -0.01894888 0 0 Z " fill="#ABF5BB" transform="translate(218.375,380.6875)"/>
</svg>
